<svg width="24" height="24" viewBox="0 0 24 24" fill="none" xmlns="http://www.w3.org/2000/svg">
<path d="M14 10.749V7.05298C14 6.21998 13.849 6.05298 13.02 6.05298L10.67 5.99998C9.93803 5.99998 9.57203 5.99998 9.42403 6.23698C9.27603 6.47398 9.44003 6.79898 9.76703 7.44698C9.94903 7.80698 10.047 8.06798 10.047 8.47198V11.132C10.047 11.972 10.047 12.393 9.72703 12.518C9.40703 12.642 9.14203 12.36 8.61003 11.796C7.31003 10.412 6.63203 8.68398 6.18703 6.79998C6.09503 6.40998 6.04903 6.21498 5.91103 6.10698C5.77303 5.99898 5.57603 5.99998 5.18403 5.99998H2.98403C2.50203 5.99998 2.26103 5.99998 2.11003 6.16998C1.96003 6.34098 1.98903 6.55898 2.04703 6.99398C2.57503 10.921 6.02803 17.36 12.407 17.974C13.537 18.082 14 17.777 14 16.539C14 15.837 13.985 14.703 14.868 14.554C15.331 14.476 15.642 14.641 16.159 15.074C17.055 15.826 17.525 16.744 17.852 17.441C18.069 17.903 18.23 18 18.74 18H20.814C21.862 18 22.147 17.744 21.68 16.76C21.1522 15.6564 20.405 14.6721 19.484 13.867C18.848 13.32 18.531 13.047 18.514 12.845C18.495 12.644 18.728 12.359 19.194 11.789C20.094 10.687 21.32 8.95798 21.892 7.12298C22.176 6.21298 21.909 5.99998 20.988 5.99998H19.125C18.222 5.99998 18.223 5.96898 18.01 6.99298C17.664 8.65398 16.532 10.251 15.468 11.338C14.963 11.854 14.658 12.165 14.343 12.038C14.028 11.911 14 11.525 14 10.749Z" stroke="#F8F8F8" stroke-width="1.5" stroke-linecap="round" stroke-linejoin="round"/>
</svg>
